<?xml version="1.0" encoding="UTF-8" standalone="no"?>
<svg
   xmlns:dc="http://purl.org/dc/elements/1.1/"
   xmlns:cc="http://creativecommons.org/ns#"
   xmlns:rdf="http://www.w3.org/1999/02/22-rdf-syntax-ns#"
   xmlns:svg="http://www.w3.org/2000/svg"
   xmlns="http://www.w3.org/2000/svg"
   xmlns:sodipodi="http://sodipodi.sourceforge.net/DTD/sodipodi-0.dtd"
   xmlns:inkscape="http://www.inkscape.org/namespaces/inkscape"
   id="weather-icon-clear"
   class="weather-icon weather-icon-white clear"
   viewBox="0 0 41.799999 41.799999"
   version="1.1"
   sodipodi:docname="clear.svg"
   width="41.799999"
   height="41.799999"
   inkscape:version="0.92.4 5da689c313, 2019-01-14">
  <metadata
     id="metadata12">
    <rdf:RDF>
      <cc:Work
         rdf:about="">
        <dc:format>image/svg+xml</dc:format>
        <dc:type
           rdf:resource="http://purl.org/dc/dcmitype/StillImage" />
      </cc:Work>
    </rdf:RDF>
  </metadata>
  <defs
     id="defs10" />
  <sodipodi:namedview
     pagecolor="#ffffff"
     bordercolor="#666666"
     borderopacity="1"
     objecttolerance="10"
     gridtolerance="10"
     guidetolerance="10"
     inkscape:pageopacity="0"
     inkscape:pageshadow="2"
     inkscape:window-width="640"
     inkscape:window-height="480"
     id="namedview8"
     showgrid="false"
     inkscape:zoom="3.6875"
     inkscape:cx="20"
     inkscape:cy="21.8"
     inkscape:window-x="0"
     inkscape:window-y="0"
     inkscape:window-maximized="0"
     inkscape:current-layer="weather-icon-clear" />
  <style
     id="style2">.st0{fill:#F4A71D;}</style>
  <g
     id="clear"
     transform="translate(-12,-12)">
    <path
       class="st0"
       d="m 32.9,19.2 c -0.7,0 -1.3,-0.6 -1.3,-1.3 v -4.6 c 0,-0.7 0.6,-1.3 1.3,-1.3 0.7,0 1.3,0.6 1.3,1.3 v 4.6 c 0,0.7 -0.6,1.3 -1.3,1.3 z m 0,34.6 c -0.7,0 -1.3,-0.6 -1.3,-1.3 v -4.6 c 0,-0.7 0.6,-1.3 1.3,-1.3 0.7,0 1.3,0.6 1.3,1.3 v 4.6 c 0,0.7 -0.6,1.3 -1.3,1.3 z m -15,-19.6 h -4.6 c -0.7,0 -1.3,-0.6 -1.3,-1.3 0,-0.7 0.6,-1.3 1.3,-1.3 h 4.6 c 0.7,0 1.3,0.6 1.3,1.3 0,0.7 -0.6,1.3 -1.3,1.3 z m 34.6,0 h -4.6 c -0.7,0 -1.3,-0.6 -1.3,-1.3 0,-0.7 0.6,-1.3 1.3,-1.3 h 4.6 c 0.7,0 1.3,0.6 1.3,1.3 0,0.7 -0.6,1.3 -1.3,1.3 z M 44,23.5 c -0.3,0 -0.7,-0.1 -0.9,-0.4 -0.5,-0.5 -0.5,-1.4 0,-1.9 L 46.3,18 c 0.5,-0.5 1.4,-0.5 1.9,0 0.5,0.5 0.5,1.4 0,1.9 L 45,23.1 c -0.3,0.3 -0.7,0.4 -1,0.4 z M 19.1,48.4 c -0.3,0 -0.7,-0.1 -0.9,-0.4 -0.5,-0.5 -0.5,-1.4 0,-1.9 l 3.2,-3.2 c 0.5,-0.5 1.4,-0.5 1.9,0 0.5,0.5 0.5,1.4 0,1.9 L 20,48 c -0.2,0.3 -0.6,0.4 -0.9,0.4 z m 28.1,-0.2 c -0.3,0 -0.7,-0.1 -0.9,-0.4 l -3.2,-3.2 c -0.5,-0.5 -0.5,-1.4 0,-1.9 0.5,-0.5 1.4,-0.5 1.9,0 l 3.2,3.2 c 0.5,0.5 0.5,1.4 0,1.9 -0.3,0.3 -0.6,0.4 -1,0.4 z M 22.3,23.7 c -0.3,0 -0.7,-0.1 -0.9,-0.4 l -3.2,-3.2 c -0.5,-0.5 -0.5,-1.4 0,-1.9 0.5,-0.5 1.4,-0.5 1.9,0 l 3.2,3.2 c 0.5,0.5 0.5,1.4 0,1.9 -0.3,0.3 -0.6,0.4 -1,0.4 z m 10.6,0.8 c 4.6,0 8.4,3.8 8.4,8.4 0,4.6 -3.8,8.4 -8.4,8.4 -4.6,0 -8.4,-3.8 -8.4,-8.4 0,-4.6 3.8,-8.4 8.4,-8.4 m 0,-2.7 c -6.1,0 -11.1,5 -11.1,11.1 0,6.1 5,11.1 11.1,11.1 C 39,44 44,39 44,32.9 44,26.8 39,21.8 32.9,21.8 Z"
       id="path4"
       inkscape:connector-curvature="0"
       style="fill:#f4a71d" />
  </g>
</svg>
