<?xml version="1.0" encoding="UTF-8" standalone="no"?>
<svg
   xmlns:dc="http://purl.org/dc/elements/1.1/"
   xmlns:cc="http://creativecommons.org/ns#"
   xmlns:rdf="http://www.w3.org/1999/02/22-rdf-syntax-ns#"
   xmlns:svg="http://www.w3.org/2000/svg"
   xmlns="http://www.w3.org/2000/svg"
   xmlns:sodipodi="http://sodipodi.sourceforge.net/DTD/sodipodi-0.dtd"
   xmlns:inkscape="http://www.inkscape.org/namespaces/inkscape"
   id="weather-icon-cloudy"
   class="weather-icon weather-icon-white cloudy"
   viewBox="0 0 52.700001 34.700001"
   version="1.1"
   sodipodi:docname="cloudy.svg"
   width="52.700001"
   height="34.700001"
   inkscape:version="0.92.4 5da689c313, 2019-01-14">
  <metadata
     id="metadata10">
    <rdf:RDF>
      <cc:Work
         rdf:about="">
        <dc:format>image/svg+xml</dc:format>
        <dc:type
           rdf:resource="http://purl.org/dc/dcmitype/StillImage" />
      </cc:Work>
    </rdf:RDF>
  </metadata>
  <defs
     id="defs8" />
  <sodipodi:namedview
     pagecolor="#ffffff"
     bordercolor="#666666"
     borderopacity="1"
     objecttolerance="10"
     gridtolerance="10"
     guidetolerance="10"
     inkscape:pageopacity="0"
     inkscape:pageshadow="2"
     inkscape:window-width="640"
     inkscape:window-height="480"
     id="namedview6"
     showgrid="false"
     inkscape:zoom="3.6875"
     inkscape:cx="25.4"
     inkscape:cy="18.2"
     inkscape:window-x="0"
     inkscape:window-y="0"
     inkscape:window-maximized="0"
     inkscape:current-layer="weather-icon-cloudy" />
  <style
     id="style2">.st0{fill:#FFFFFF;}</style>
  <path
     class="st0"
     d="M 43.1,34.7 H 10.2 C 4.6,34.7 0,30.1 0,24.5 0,20.1 2.9,16.2 7,14.8 v -0.3 c 0,-5.1 4.2,-9.3 9.3,-9.3 1.3,0 2.5,0.3 3.7,0.8 2.5,-3.7 6.6,-6 11.2,-6 7.4,0 13.4,6 13.4,13.4 0,0.8 -0.1,1.6 -0.2,2.4 4.7,0.6 8.3,4.6 8.3,9.4 -0.1,5.2 -4.4,9.5 -9.6,9.5 z M 16.3,7.9 c -3.6,0 -6.6,3 -6.6,6.6 0,0.3 0,0.7 0.1,1.1 L 10,16.9 8.7,17.1 C 5.2,17.8 2.6,20.9 2.6,24.5 2.6,28.7 6,32 10.1,32 H 43 c 3.8,0 6.8,-3.1 6.8,-6.8 0,-3.8 -3.1,-6.8 -6.8,-6.8 h -0.3 l -2,0.1 0.6,-1.9 c 0.3,-1.1 0.5,-2.2 0.5,-3.3 C 41.8,7.4 37,2.6 31.1,2.6 c -4,0 -7.6,2.2 -9.5,5.7 L 20.9,9.6 19.7,8.9 c -1,-0.7 -2.2,-1 -3.4,-1 z"
     id="cloudy"
     inkscape:connector-curvature="0"
     style="fill:#ffffff" />
</svg>
