<?xml version="1.0" encoding="UTF-8" standalone="no"?>
<!-- Generator: Adobe Illustrator 21.1.0, SVG Export Plug-In . SVG Version: 6.00 Build 0)  -->

<svg
   xmlns:dc="http://purl.org/dc/elements/1.1/"
   xmlns:cc="http://creativecommons.org/ns#"
   xmlns:rdf="http://www.w3.org/1999/02/22-rdf-syntax-ns#"
   xmlns:svg="http://www.w3.org/2000/svg"
   xmlns="http://www.w3.org/2000/svg"
   xmlns:sodipodi="http://sodipodi.sourceforge.net/DTD/sodipodi-0.dtd"
   xmlns:inkscape="http://www.inkscape.org/namespaces/inkscape"
   version="1.1"
   id="Layer_4"
   x="0px"
   y="0px"
   viewBox="0 0 41.599998 41.700737"
   xml:space="preserve"
   sodipodi:docname="nt_clear.svg"
   width="41.599998"
   height="41.700737"
   inkscape:version="0.92.4 5da689c313, 2019-01-14"><metadata
   id="metadata11"><rdf:RDF><cc:Work
       rdf:about=""><dc:format>image/svg+xml</dc:format><dc:type
         rdf:resource="http://purl.org/dc/dcmitype/StillImage" /></cc:Work></rdf:RDF></metadata><defs
   id="defs9" /><sodipodi:namedview
   pagecolor="#ffffff"
   bordercolor="#666666"
   borderopacity="1"
   objecttolerance="10"
   gridtolerance="10"
   guidetolerance="10"
   inkscape:pageopacity="0"
   inkscape:pageshadow="2"
   inkscape:window-width="640"
   inkscape:window-height="480"
   id="namedview7"
   showgrid="false"
   inkscape:zoom="3.6875"
   inkscape:cx="20.8"
   inkscape:cy="20.9"
   inkscape:window-x="0"
   inkscape:window-y="0"
   inkscape:window-maximized="0"
   inkscape:current-layer="Layer_4" />
<style
   type="text/css"
   id="style2">
	.st0{fill:#72B8D4;}
</style>
<path
   class="st0"
   d="m 39.3,23.900736 c -11.5,0 -24.2,-9.1 -18.4,-23.89999958303 v 0 C 8.5,-0.09926358 0,10.000736 0,20.800736 c 0,11.5 9.3,20.9 20.9,20.9 10.5,0 19.2,-7.6 20.7,-17.7 0,-0.1 -1.5,-0.1 -2.3,-0.1 z m -18.1,14.7 c -9.9,0 -17.9,-8 -17.9,-17.9 0,-8.2 5.8,-15.0999996 13.3,-17.2999996 v 0.1 C 14.8,16.000736 23.7,26.500736 37.3,27.700736 v 0 c -3.5,6.8 -8.3,10.6 -16.1,10.9 z"
   id="path4"
   inkscape:connector-curvature="0"
   style="fill:#72b8d4" />
</svg>