<?xml version="1.0" encoding="UTF-8" standalone="no"?>
<!-- Generator: Adobe Illustrator 21.1.0, SVG Export Plug-In . SVG Version: 6.00 Build 0)  -->

<svg
   xmlns:dc="http://purl.org/dc/elements/1.1/"
   xmlns:cc="http://creativecommons.org/ns#"
   xmlns:rdf="http://www.w3.org/1999/02/22-rdf-syntax-ns#"
   xmlns:svg="http://www.w3.org/2000/svg"
   xmlns="http://www.w3.org/2000/svg"
   xmlns:sodipodi="http://sodipodi.sourceforge.net/DTD/sodipodi-0.dtd"
   xmlns:inkscape="http://www.inkscape.org/namespaces/inkscape"
   version="1.1"
   id="weather-icon-mostlysunny"
   x="0px"
   y="0px"
   viewBox="0 0 52 50.799999"
   xml:space="preserve"
   sodipodi:docname="nt_partlycloudy.svg"
   width="52"
   height="50.799999"
   inkscape:version="0.92.4 5da689c313, 2019-01-14"><metadata
   id="metadata13"><rdf:RDF><cc:Work
       rdf:about=""><dc:format>image/svg+xml</dc:format><dc:type
         rdf:resource="http://purl.org/dc/dcmitype/StillImage" /></cc:Work></rdf:RDF></metadata><defs
   id="defs11" /><sodipodi:namedview
   pagecolor="#ffffff"
   bordercolor="#666666"
   borderopacity="1"
   objecttolerance="10"
   gridtolerance="10"
   guidetolerance="10"
   inkscape:pageopacity="0"
   inkscape:pageshadow="2"
   inkscape:window-width="640"
   inkscape:window-height="480"
   id="namedview9"
   showgrid="false"
   inkscape:zoom="3.6875"
   inkscape:cx="25.3"
   inkscape:cy="26.2"
   inkscape:window-x="0"
   inkscape:window-y="0"
   inkscape:window-maximized="0"
   inkscape:current-layer="weather-icon-mostlysunny" />
<style
   type="text/css"
   id="style2">
	.st0{fill:#FFFFFF;}
	.st1{fill:#72B8D4;}
</style>
<path
   class="st0"
   d="M 33.5,50.8 H 8.4 C 3.8,50.8 0,47 0,42.4 0,38.9 2.1,35.7 5.4,34.5 5.5,30.4 8.9,27 13.2,27 c 0.9,0 1.8,0.1 2.5,0.5 2,-2.8 5.3,-4.5 8.8,-4.5 6,0 10.9,4.9 10.9,10.9 0,0.5 0,0.9 -0.1,1.4 3.5,0.8 6.3,3.9 6.3,7.8 -0.2,4.2 -3.7,7.7 -8.1,7.7 z M 13.1,30.3 c -2.4,0 -4.4,2 -4.4,4.4 0,0.3 0,0.5 0.1,0.8 l 0.3,1.6 -1.6,0.4 c -2.4,0.5 -4.1,2.6 -4.1,5 0,2.8 2.3,5.1 5.1,5.1 h 25.1 c 2.5,0 4.5,-2 4.5,-4.5 0,-2.5 -2,-4.5 -4.5,-4.5 h -0.3 l -2.5,0.1 0.8,-2.4 c 0.3,-0.8 0.4,-1.5 0.4,-2.4 0,-4.1 -3.4,-7.5 -7.5,-7.5 -2.8,0 -5.4,1.5 -6.7,4 L 16.9,32 15.3,31.2 c -0.6,-0.6 -1.5,-0.9 -2.2,-0.9 z"
   id="path4"
   inkscape:connector-curvature="0"
   style="fill:#ffffff" />
<path
   class="st1"
   d="m 51.4,17.3 c 0,0 -1.1,0 -1.6,0 C 44.8,17.3 40,15 37.5,11.4 35.4,8.3 35.1,4 36.6,0 v 0 h -0.3 c -4.1,0 -8.1,1.5 -10.9,4.4 -2.9,2.9 -4.6,6.9 -4.6,11.1 0,1.3 0.2,2.7 0.5,4 l 0.1,0.4 0.4,-0.1 c 0.7,-0.2 1.5,-0.3 2.3,-0.4 h 0.5 L 24.5,19 C 24.2,17.9 24,16.7 24,15.6 c 0,-5.3 3.6,-10.2 8.8,-12 -0.5,4.1 0.6,8 3.1,11.1 2.7,3.5 6.9,5.7 11.7,6.2 -2.2,4.2 -5,6.4 -9,7.1 l -0.4,0.1 0.2,0.4 c 0.3,0.7 0.5,1.4 0.6,2.1 l 0.1,0.4 0.4,-0.1 C 46,29.6 51,24.5 51.9,18 L 52,17.6 Z"
   id="path6"
   inkscape:connector-curvature="0"
   style="fill:#72b8d4" />
</svg>