<?xml version="1.0" encoding="UTF-8" standalone="no"?>
<svg
   xmlns:dc="http://purl.org/dc/elements/1.1/"
   xmlns:cc="http://creativecommons.org/ns#"
   xmlns:rdf="http://www.w3.org/1999/02/22-rdf-syntax-ns#"
   xmlns:svg="http://www.w3.org/2000/svg"
   xmlns="http://www.w3.org/2000/svg"
   xmlns:sodipodi="http://sodipodi.sourceforge.net/DTD/sodipodi-0.dtd"
   xmlns:inkscape="http://www.inkscape.org/namespaces/inkscape"
   id="weather-icon-snow"
   class="weather-icon weather-icon-white snow"
   viewBox="0 0 39.5 39.200001"
   version="1.1"
   sodipodi:docname="snow.svg"
   width="39.5"
   height="39.200001"
   inkscape:version="0.92.4 5da689c313, 2019-01-14">
  <metadata
     id="metadata10">
    <rdf:RDF>
      <cc:Work
         rdf:about="">
        <dc:format>image/svg+xml</dc:format>
        <dc:type
           rdf:resource="http://purl.org/dc/dcmitype/StillImage" />
      </cc:Work>
    </rdf:RDF>
  </metadata>
  <defs
     id="defs8" />
  <sodipodi:namedview
     pagecolor="#ffffff"
     bordercolor="#666666"
     borderopacity="1"
     objecttolerance="10"
     gridtolerance="10"
     guidetolerance="10"
     inkscape:pageopacity="0"
     inkscape:pageshadow="2"
     inkscape:window-width="640"
     inkscape:window-height="480"
     id="namedview6"
     showgrid="false"
     inkscape:zoom="3.6875"
     inkscape:cx="18.8"
     inkscape:cy="20.5"
     inkscape:window-x="0"
     inkscape:window-y="0"
     inkscape:window-maximized="0"
     inkscape:current-layer="weather-icon-snow" />
  <style
     id="style2">.st0{fill:#72B8D4;}</style>
  <path
     class="st0"
     d="m 38.4,18.7 h -5.2 l 2.2,-2.2 c 0.4,-0.4 0.4,-1 0,-1.4 -0.4,-0.4 -1,-0.4 -1.4,0 l -3.6,3.6 H 22.1 L 28,12.8 h 5.1 c 0.5,0 1,-0.4 1,-1 0,-0.5 -0.4,-1 -1,-1 H 30 l 3.7,-3.7 c 0.4,-0.4 0.4,-1 0,-1.4 -0.4,-0.4 -1,-0.4 -1.4,0 L 28.6,9.4 V 6.3 c 0,-0.5 -0.4,-1 -1,-1 -0.5,0 -1,0.4 -1,1 v 5.1 l -5.9,5.9 V 9 L 24.3,5.4 C 24.7,5 24.7,4.4 24.3,4 23.9,3.6 23.3,3.6 22.9,4 L 20.7,6.2 V 1 c 0,-0.5 -0.4,-1 -1,-1 -0.5,0 -1,0.4 -1,1 V 6.2 L 16.5,4 c -0.4,-0.4 -1,-0.4 -1.4,0 -0.4,0.4 -0.4,1 0,1.4 L 18.7,9 v 8.3 L 12.8,11.4 V 6.3 c 0,-0.5 -0.4,-1 -1,-1 -0.5,0 -1,0.4 -1,1 V 9.4 L 7.1,5.7 c -0.4,-0.4 -1,-0.4 -1.4,0 -0.4,0.4 -0.4,1 0,1.4 l 3.7,3.7 H 6.3 c -0.5,0 -1,0.4 -1,1 0,0.5 0.4,1 1,1 h 5.1 l 5.9,5.9 H 9 L 5.4,15.1 c -0.4,-0.4 -1,-0.4 -1.4,0 -0.4,0.4 -0.4,1 0,1.4 l 2.2,2.2 H 1 c -0.5,0 -1,0.4 -1,1 0,0.5 0.4,1 1,1 H 6.2 L 4,22.9 c -0.4,0.4 -0.4,1 0,1.4 0.2,0.2 0.4,0.3 0.7,0.3 0.2,0 0.5,-0.1 0.7,-0.3 L 9,20.7 h 8.3 l -5.9,5.9 H 6.3 c -0.5,0 -1,0.4 -1,1 0,0.5 0.4,1 1,1 h 3.1 l -3.6,3.5 c -0.4,0.4 -0.4,1 0,1.4 0.2,0.2 0.4,0.3 0.7,0.3 0.2,0 0.5,-0.1 0.7,-0.3 l 3.7,-3.7 v 3.1 c 0,0.5 0.4,1 1,1 0.5,0 1,-0.4 1,-1 v -5.1 l 5.9,-5.9 v 8.3 l -3.6,3.6 c -0.4,0.4 -0.4,1 0,1.4 0.2,0.2 0.4,0.3 0.7,0.3 0.3,0 0.5,-0.1 0.7,-0.3 L 18.8,33 v 5.2 c 0,0.5 0.4,1 1,1 0.5,0 1,-0.4 1,-1 V 33 l 2.2,2.2 c 0.2,0.2 0.4,0.3 0.7,0.3 0.3,0 0.5,-0.1 0.7,-0.3 0.4,-0.4 0.4,-1 0,-1.4 l -3.6,-3.6 v -8.3 l 5.9,5.9 v 5.1 c 0,0.5 0.4,1 1,1 0.5,0 1,-0.4 1,-1 v -3.1 l 3.7,3.7 c 0.2,0.2 0.4,0.3 0.7,0.3 0.3,0 0.5,-0.1 0.7,-0.3 0.4,-0.4 0.4,-1 0,-1.4 l -3.7,-3.7 h 3.1 c 0.5,0 1,-0.4 1,-1 0,-0.5 -0.4,-1 -1,-1 h -5.1 l -5.9,-5.9 h 8.3 l 3.6,3.6 c 0.2,0.2 0.4,0.3 0.7,0.3 0.3,0 0.5,-0.1 0.7,-0.3 0.4,-0.4 0.4,-1 0,-1.4 l -2.2,-2.2 h 5.2 c 0.5,0 1,-0.4 1,-1 -0.2,-0.4 -0.6,-0.8 -1.1,-0.8 z"
     id="snow"
     inkscape:connector-curvature="0"
     style="fill:#72b8d4" />
</svg>
