<?xml version="1.0" encoding="UTF-8" standalone="no"?>
<svg
   xmlns:dc="http://purl.org/dc/elements/1.1/"
   xmlns:cc="http://creativecommons.org/ns#"
   xmlns:rdf="http://www.w3.org/1999/02/22-rdf-syntax-ns#"
   xmlns:svg="http://www.w3.org/2000/svg"
   xmlns="http://www.w3.org/2000/svg"
   xmlns:sodipodi="http://sodipodi.sourceforge.net/DTD/sodipodi-0.dtd"
   xmlns:inkscape="http://www.inkscape.org/namespaces/inkscape"
   height="444pt"
   viewBox="-3 0 436.57432 444"
   width="437.55981pt"
   version="1.1"
   id="svg50"
   sodipodi:docname="tornado.svg"
   inkscape:version="0.92.4 5da689c313, 2019-01-14">
  <metadata
     id="metadata56">
    <rdf:RDF>
      <cc:Work
         rdf:about="">
        <dc:format>image/svg+xml</dc:format>
        <dc:type
           rdf:resource="http://purl.org/dc/dcmitype/StillImage" />
      </cc:Work>
    </rdf:RDF>
  </metadata>
  <defs
     id="defs54" />
  <sodipodi:namedview
     pagecolor="#ffffff"
     bordercolor="#666666"
     borderopacity="1"
     objecttolerance="10"
     gridtolerance="10"
     guidetolerance="10"
     inkscape:pageopacity="0"
     inkscape:pageshadow="2"
     inkscape:window-width="640"
     inkscape:window-height="480"
     id="namedview52"
     showgrid="false"
     inkscape:zoom="0.39864865"
     inkscape:cx="290.66667"
     inkscape:cy="296"
     inkscape:window-x="0"
     inkscape:window-y="0"
     inkscape:window-maximized="0"
     inkscape:current-layer="svg50" />
  <path
     d="M 32.171875,47.832031 C 17.621094,195.34375 76.546875,207.60156 144.61328,246.76562 199.60937,278.39844 263.36719,345.44141 201.51172,444 332.5,424.29687 406.10156,314.44531 375.94531,234.35937 344.98437,152.17578 410.67187,127.80859 418.29687,47.832031 Z m 0,0"
     id="path2"
     inkscape:connector-curvature="0"
     style="fill:#26a3b9" />
  <path
     d="m 279.26953,223.89844 c -7.98437,1.08984 -15.19141,5.35547 -19.98437,11.83203 -4.79297,6.47656 -6.76172,14.61719 -5.46485,22.57031 l -12.12109,12.09766 c -2.73438,2.73437 -2.73438,7.16797 0,9.90234 2.73437,2.73438 7.16797,2.73438 9.90234,0 l 12.09766,-12.11328 c 7.95312,1.29687 16.09375,-0.67188 22.57031,-5.46484 6.47656,-4.79297 10.74219,-12 11.83203,-19.98438 l 2.95703,-21.78906 z m 0,0"
     id="path4"
     inkscape:connector-curvature="0"
     style="fill:#168aa5" />
  <path
     d="m 418.30078,47.832031 h -31.26953 c -7.62891,79.980469 -73.33203,104.343749 -42.35547,186.527339 27.27344,72.40235 -30.29297,169.11719 -138.37109,201.57032 -1.51563,2.66797 -3.08985,5.35156 -4.80078,8.0664 C 332.5,424.29687 406.10156,314.44531 375.94531,234.35937 344.98438,152.17578 410.67188,127.8125 418.30078,47.832031 Z m 0,0"
     id="path6"
     inkscape:connector-curvature="0"
     style="fill:#168aa5" />
  <path
     d="M 418.30078,47.832031 C 418.30078,21.414062 331.86328,0 225.23437,0 118.60937,0 32.171875,21.414062 32.171875,47.832031 c 0,26.417969 86.437495,47.832031 193.062495,47.832031 106.62891,0 193.06641,-21.414062 193.06641,-47.832031 z m 0,0"
     id="path8"
     inkscape:connector-curvature="0"
     style="fill:#d9ecf2" />
  <path
     d="m 225.23437,0 c -6.39843,0 -12.73046,0.078125 -18.99609,0.230469 97.71094,2.367187 174.07031,22.773437 174.07031,47.601562 0,24.828125 -76.35937,45.230469 -174.07031,47.601563 6.25391,0.152344 12.58594,0.226562 18.99609,0.230468 106.62891,0 193.06641,-21.417968 193.06641,-47.832031 C 418.30078,21.414062 331.85937,0 225.23437,0 Z m 0,0"
     id="path10"
     inkscape:connector-curvature="0"
     style="fill:#bdd9e5" />
  <path
     d="m 398.73437,68.820312 c -0.71093,-1.574218 -1.98828,-2.828124 -3.57421,-3.511718 C 359.35547,49.980469 295.83203,40.828125 225.23047,40.828125 154.63281,40.828125 91.113281,50 55.300781,65.3125 53.710938,65.996094 52.4375,67.25 51.722656,68.824219 c 5.175782,2.558593 10.511719,4.777343 15.976563,6.640625 34.917971,-12.800782 94.132811,-20.632813 157.531251,-20.632813 63.40234,0 122.62109,7.832031 157.53906,20.632813 5.46094,-1.863282 10.79297,-4.082032 15.96484,-6.644532 z m 0,0"
     id="path12"
     inkscape:connector-curvature="0"
     style="fill:#bdd9e5" />
  <g
     id="g26"
     style="fill:#168aa5"
     transform="translate(-4)">
    <path
       d="m 229.23047,187.42969 c -83.85156,0 -147.269532,-11.09375 -182.726564,-24.30469 2.683594,6.23047 5.953125,12.19531 9.765625,17.8125 44.601559,13.45703 109.894529,20.49219 172.960939,20.49219 58.65625,0 107.5039,-5.41797 142.76562,-15.08203 0.39844,-5.27344 1.2461,-10.5 2.53516,-15.62891 -31.23047,9.60156 -79.07031,16.71094 -145.30078,16.71094 z m 0,0"
       id="path14"
       inkscape:connector-curvature="0" />
    <path
       d="M 284.86328,398.55859 C 265.74219,397.66406 246.83594,394.10937 228.69141,388 c -0.88282,4.62109 -2.01563,9.1875 -3.38282,13.6875 18.96875,6.08984 38.63672,9.73047 58.52735,10.83203 3.49609,0.25781 6.87109,0.45313 10.17968,0.60938 7.09766,-4.17969 13.95704,-8.75 20.54297,-13.69141 -8.89062,0.20703 -18.72656,-0.0742 -29.69531,-0.87891 z m 0,0"
       id="path16"
       inkscape:connector-curvature="0" />
    <path
       d="m 385.69922,257.32812 c -27.19922,13.38672 -67.14453,27.14454 -114.67188,36.85157 -19.69921,4.04687 -39.59375,7.09765 -59.59765,9.14453 2.8125,4.27344 5.36719,8.71484 7.64453,13.29687 17.60156,-1.97656 36,-4.90234 54.74219,-8.72656 38.82031,-7.47266 76.66406,-19.34375 112.80078,-35.375 0.0391,-5.07812 -0.26563,-10.15234 -0.91797,-15.19141 z m 0,0"
       id="path18"
       inkscape:connector-curvature="0" />
    <path
       d="m 239.56641,152.39844 c -3.17188,0 -5.11719,-0.0312 -5.56641,-0.043 -3.86328,-0.0742 -6.9375,-3.26563 -6.86328,-7.13281 0.0117,-1.86329 0.77734,-3.64063 2.12109,-4.9336 1.33985,-1.28906 3.14844,-1.98437 5.01172,-1.92969 0.70313,0 72.27344,1.19922 123.26953,-13.69921 3.67969,-0.9961 7.48047,1.13672 8.55078,4.79296 1.06641,3.66016 -0.98828,7.50391 -4.625,8.64454 -45.20312,13.20312 -103.68359,14.30078 -121.89843,14.30078 z m 0,0"
       id="path20"
       inkscape:connector-curvature="0" />
    <path
       d="m 196.85937,150.64844 c -0.26171,0 -0.51953,-0.0156 -0.78125,-0.043 -18.3164,-2.03516 -30.55859,-4.17188 -31.07031,-4.26172 -3.77734,-0.69922 -6.28515,-4.3125 -5.62109,-8.09375 0.66406,-3.78516 4.2539,-6.32422 8.04687,-5.69531 0.11719,0.0195 12.35157,2.15625 30.1875,4.13672 3.6836,0.41406 6.40625,3.63671 6.20313,7.33984 -0.19922,3.70312 -3.25781,6.60547 -6.96875,6.61719 z m 0,0"
       id="path22"
       inkscape:connector-curvature="0" />
    <path
       d="m 255.10156,346.23828 c -3.76953,0.0117 -6.86719,-2.96094 -7.01562,-6.72266 -0.14844,-3.76562 2.71093,-6.97265 6.46484,-7.2539 56.06641,-4.44922 81.25,-18.10547 81.49609,-18.24219 3.375,-1.89062 7.64063,-0.6914 9.53125,2.67969 1.89454,3.37109 0.69532,7.64062 -2.67968,9.53125 -1.09766,0.62109 -27.66407,15.26172 -87.23828,20 -0.1875,0.004 -0.35938,0.008 -0.5586,0.008 z m 0,0"
       id="path24"
       inkscape:connector-curvature="0" />
  </g>
  <path
     d="m 247.56641,258.89062 -1.42969,-7.67968 c -1.5,-8.04297 0.36719,-16.34375 5.15625,-22.97657 4.79297,-6.6289 12.09375,-11.0039 20.19922,-12.10546 l 21.79297,-2.96094 -2.96094,21.79297 c -1.10156,8.10547 -5.47656,15.40625 -12.10938,20.19531 -6.6289,4.79297 -14.93359,6.65625 -22.97656,5.16016 z m 0,0"
     id="path28"
     inkscape:connector-curvature="0"
     style="fill:#d9ecf2" />
  <path
     d="m 238.89844,274.57812 c -2.82813,0 -5.37891,-1.70312 -6.46094,-4.32031 -1.08594,-2.61328 -0.48438,-5.625 1.51562,-7.625 l 23.98047,-23.98047 c 2.73047,-2.73437 7.16407,-2.73437 9.89844,0 2.73438,2.73438 2.73438,7.16407 0,9.89844 l -23.98047,23.98047 c -1.3125,1.31641 -3.09375,2.05078 -4.95312,2.04687 z m 0,0"
     id="path30"
     inkscape:connector-curvature="0"
     style="fill:#bdd9e5" />
  <path
     d="m 148.76953,384.21484 -6.96484,3.53907 c -7.29297,3.69922 -15.78516,4.25 -23.49219,1.52343 -7.71094,-2.73047 -13.96484,-8.49609 -17.30859,-15.96093 l -8.984379,-20.07813 21.746099,-3.30469 c 8.08593,-1.23047 16.32421,0.91016 22.78906,5.91797 6.46875,5.00781 10.59765,12.44922 11.42968,20.58985 z m 0,0"
     id="path32"
     inkscape:connector-curvature="0"
     style="fill:#26a3b9" />
  <path
     d="m 159.54687,397.10547 c -1.16796,0 -2.32031,-0.29688 -3.34765,-0.85938 L 126.43359,380 c -3.36718,-1.86719 -4.59765,-6.09766 -2.7539,-9.47656 1.84375,-3.37891 6.07031,-4.63282 9.46093,-2.8125 l 29.76172,16.24609 c 2.81641,1.53125 4.23047,4.77734 3.4375,7.87891 -0.79297,3.10547 -3.59375,5.27343 -6.79687,5.26953 z m 0,0"
     id="path34"
     inkscape:connector-curvature="0"
     style="fill:#168aa5" />
  <path
     d="m 74.050781,241.44531 -3.375,7.04297 c -3.535156,7.375 -9.941406,12.98047 -17.722656,15.50781 -7.78125,2.52344 -16.253906,1.75 -23.449219,-2.14453 L 10.164062,251.38281 25.410156,235.53125 c 5.671875,-5.89453 13.511719,-9.20703 21.695313,-9.16406 8.179687,0.0391 15.984375,3.43359 21.59375,9.39062 z m 0,0"
     id="path36"
     inkscape:connector-curvature="0"
     style="fill:#26a3b9" />
  <path
     d="m 235.56641,143.31641 c -3.17188,0 -5.11719,-0.0312 -5.56641,-0.043 -3.86328,-0.0742 -6.9375,-3.26953 -6.86328,-7.13282 0.0117,-1.86328 0.77734,-3.64062 2.12109,-4.93359 1.33985,-1.29297 3.14844,-1.98828 5.01172,-1.92969 0.70313,0 72.27344,1.19922 123.26953,-13.70312 3.67969,-0.99609 7.48047,1.13672 8.55078,4.79687 1.06641,3.66016 -0.98828,7.5 -4.625,8.64063 -45.20312,13.20312 -103.68359,14.30469 -121.89843,14.30469 z m 0,0"
     id="path38"
     inkscape:connector-curvature="0"
     style="fill:#d9ecf2" />
  <path
     d="m 192.85937,141.55859 c -0.26171,0 -0.51953,-0.0117 -0.78125,-0.043 -18.3164,-2.03125 -30.55859,-4.17187 -31.07031,-4.25781 -3.77734,-0.69922 -6.28515,-4.3125 -5.62109,-8.09765 0.66406,-3.78516 4.2539,-6.32422 8.04687,-5.69141 0.11719,0.0195 12.35157,2.15625 30.1875,4.13672 3.6836,0.41406 6.40625,3.63281 6.20313,7.33594 -0.19922,3.70703 -3.25781,6.60937 -6.96875,6.61718 z m 0,0"
     id="path40"
     inkscape:connector-curvature="0"
     style="fill:#d9ecf2" />
  <path
     d="M 225.23047,192.34375 C 114.35547,192.34375 -3.5,170.64062 -3.5,130.39844 c 0,-3.86328 3.132812,-7 7,-7 3.867188,0 7,3.13672 7,7 0,20 81.683594,47.92968 214.71484,47.92968 131.51953,0 190.67578,-28.02734 190.67578,-47.92968 0,-3.86328 3.13672,-7 7,-7 3.86719,0 7,3.13672 7,7 0.0195,37.63672 -80.32031,61.94531 -204.66015,61.94531 z m 0,0"
     id="path42"
     inkscape:connector-curvature="0"
     style="fill:#0162a7" />
  <path
     d="m 164.98828,310.5625 c -6.17187,0 -12.09375,-0.16406 -17.77344,-0.49609 -37.80078,-2.21094 -58.58984,-11.29688 -61.804684,-27.01172 -0.71875,-3.76172 1.722656,-7.40235 5.476563,-8.17188 3.753906,-0.76562 7.425781,1.62891 8.242191,5.375 1.23828,6.0586 14.80078,13.83985 48.90625,15.83594 32.67187,1.91406 74.9375,-2 118.98828,-10.99609 82.01953,-16.76172 141.55468,-45.57032 151.73437,-63.74219 1.88672,-3.37109 1.27735,-5.03906 1.07813,-5.59766 -4.52344,-12.46093 -26.76563,-11.4375 -26.99219,-11.41797 -3.83203,0.19922 -7.10938,-2.72656 -7.34766,-6.55468 -0.23828,-3.82813 2.64844,-7.13672 6.47657,-7.41797 1.33984,-0.0781 32.88671,-1.78906 41.01953,20.60937 1.94922,5.7461 1.20312,12.0625 -2.02344,17.19922 -14.03125,25.08203 -80.29687,54.11719 -161.14844,70.625 -34.47656,7.33594 -69.58984,11.27734 -104.83203,11.76172 z m 0,0"
     id="path44"
     inkscape:connector-curvature="0"
     style="fill:#d9ecf2" />
  <path
     d="m 304.83203,404.42969 c -7.73437,0 -16.06641,-0.33203 -24.99609,-0.9961 -30.47657,-2.24609 -82.4961,-9.9375 -88.48438,-36.28125 -0.57812,-2.44922 0.20313,-5.01562 2.04297,-6.73047 1.84375,-1.71093 4.46094,-2.30468 6.85938,-1.55468 2.39843,0.75 4.21484,2.72656 4.75,5.18359 2.28125,10.04297 26.625,21.79688 75.85546,25.42188 53.875,3.95312 81.7461,-4.04688 93.19922,-26.80079 1.73828,-3.45312 5.94922,-4.84375 9.40235,-3.10937 3.45312,1.73828 4.84375,5.94922 3.10547,9.40234 -12.26954,24.375 -37.26563,35.46485 -81.73438,35.46485 z m 0,0"
     id="path46"
     inkscape:connector-curvature="0"
     style="fill:#0162a7" />
  <path
     d="m 251.10156,337.15625 c -3.76953,0.0117 -6.86719,-2.96094 -7.01562,-6.72656 -0.14844,-3.76172 2.71093,-6.96875 6.46484,-7.25391 56.06641,-4.44922 81.25,-18.10547 81.49609,-18.23828 3.36719,-1.85156 7.59766,-0.64453 9.47657,2.70703 1.88281,3.35156 0.71093,7.58984 -2.625,9.5 -1.09766,0.62109 -27.66407,15.25781 -87.23828,20 -0.1875,0.004 -0.35938,0.0117 -0.5586,0.0117 z m 0,0"
     id="path48"
     inkscape:connector-curvature="0"
     style="fill:#0162a7" />
</svg>
