<?xml version="1.0" encoding="UTF-8" standalone="no"?>
<svg
   xmlns:dc="http://purl.org/dc/elements/1.1/"
   xmlns:cc="http://creativecommons.org/ns#"
   xmlns:rdf="http://www.w3.org/1999/02/22-rdf-syntax-ns#"
   xmlns:svg="http://www.w3.org/2000/svg"
   xmlns="http://www.w3.org/2000/svg"
   xmlns:sodipodi="http://sodipodi.sourceforge.net/DTD/sodipodi-0.dtd"
   xmlns:inkscape="http://www.inkscape.org/namespaces/inkscape"
   height="405.58594pt"
   viewBox="0 -53 512 405.58594"
   width="512pt"
   version="1.1"
   id="svg20"
   sodipodi:docname="wind.svg"
   inkscape:version="0.92.4 5da689c313, 2019-01-14">
  <metadata
     id="metadata26">
    <rdf:RDF>
      <cc:Work
         rdf:about="">
        <dc:format>image/svg+xml</dc:format>
        <dc:type
           rdf:resource="http://purl.org/dc/dcmitype/StillImage" />
      </cc:Work>
    </rdf:RDF>
  </metadata>
  <defs
     id="defs24" />
  <sodipodi:namedview
     pagecolor="#ffffff"
     bordercolor="#666666"
     borderopacity="1"
     objecttolerance="10"
     gridtolerance="10"
     guidetolerance="10"
     inkscape:pageopacity="0"
     inkscape:pageshadow="2"
     inkscape:window-width="640"
     inkscape:window-height="480"
     id="namedview22"
     showgrid="false"
     inkscape:zoom="0.34570313"
     inkscape:cx="341.33333"
     inkscape:cy="270.1146"
     inkscape:window-x="0"
     inkscape:window-y="0"
     inkscape:window-maximized="0"
     inkscape:current-layer="svg20" />
  <path
     d="M 270.03516,133.625 H 63.011719 c -4.207031,0 -7.613281,-3.41016 -7.613281,-7.61328 0,-4.20313 3.40625,-7.60938 7.613281,-7.60938 H 270.03516 c 4.20703,0 7.61328,3.40625 7.61328,7.60938 0,4.20312 -3.41016,7.61328 -7.61328,7.61328 z m 0,0"
     id="path2"
     inkscape:connector-curvature="0"
     style="fill:#d3ddea" />
  <path
     d="M 448.65234,133.625 H 300.48437 c -4.20703,0 -7.61328,-3.41016 -7.61328,-7.61328 0,-4.20313 3.40625,-7.60938 7.61328,-7.60938 h 148.16797 c 4.20313,0 7.60938,3.40625 7.60938,7.60938 0,4.20312 -3.40625,7.61328 -7.60938,7.61328 z m 0,0"
     id="path4"
     inkscape:connector-curvature="0"
     style="fill:#d3ddea" />
  <path
     d="M 416.17578,174.07812 H 30.535156 c -4.203125,0 -7.609375,-3.40625 -7.609375,-7.60937 0,-4.20313 3.40625,-7.61328 7.609375,-7.61328 H 416.17578 c 4.20313,0 7.60938,3.41015 7.60938,7.61328 0,4.20312 -3.40625,7.60937 -7.60938,7.60937 z m 0,0"
     id="path6"
     inkscape:connector-curvature="0"
     style="fill:#84abc1" />
  <path
     d="m 460.75,306.60156 c -28.25781,0 -51.25,-22.99219 -51.25,-51.25 0,-4.20312 3.40625,-7.60937 7.61328,-7.60937 4.20313,0 7.60938,3.40625 7.60938,7.60937 0,19.86719 16.16406,36.02735 36.02734,36.02735 19.86719,0 36.02734,-16.16016 36.02734,-36.02735 0,-19.86718 -16.16015,-36.02734 -36.02734,-36.02734 H 83.308594 c -4.207032,0 -7.613282,-3.40625 -7.613282,-7.60938 0,-4.20312 3.40625,-7.61328 7.613282,-7.61328 H 460.75 c 28.26172,0 51.25,22.99219 51.25,51.25 0,28.25782 -22.99219,51.25 -51.25,51.25 z m 0,0"
     id="path8"
     inkscape:connector-curvature="0"
     style="fill:#d3ddea" />
  <g
     id="g16"
     style="fill:#84abc1"
     transform="translate(0,-53)">
    <path
       d="M 116.79688,318.30859 H 16.328125 c -4.203125,0 -7.613281,-3.40625 -7.613281,-7.60937 0,-4.20313 3.410156,-7.61328 7.613281,-7.61328 H 116.79688 c 4.20312,0 7.60937,3.41015 7.60937,7.61328 0,4.20312 -3.40625,7.60937 -7.60937,7.60937 z m 0,0"
       id="path10"
       inkscape:connector-curvature="0" />
    <path
       d="m 328.09375,405.58594 c -28.25781,0 -51.25,-22.98828 -51.25,-51.25 0,-4.20313 3.40625,-7.60938 7.61328,-7.60938 4.20313,0 7.60938,3.40625 7.60938,7.60938 0,19.86718 16.16406,36.02734 36.02734,36.02734 19.86719,0 36.02734,-16.16016 36.02734,-36.02734 0,-19.86328 -16.16015,-36.02735 -36.02734,-36.02735 H 152.31641 c -4.20313,0 -7.60938,-3.40625 -7.60938,-7.60937 0,-4.20313 3.40625,-7.61328 7.60938,-7.61328 h 175.77734 c 28.26172,0 51.25,22.99219 51.25,51.25 0,28.26172 -22.98828,51.25 -51.25,51.25 z m 0,0"
       id="path12"
       inkscape:connector-curvature="0" />
    <path
       d="M 385.05469,146.16797 H 7.609375 C 3.40625,146.16797 0,142.76172 0,138.55859 c 0,-4.20312 3.40625,-7.61328 7.609375,-7.61328 H 385.05469 c 19.86718,0 36.02734,-16.16015 36.02734,-36.027341 0,-19.863281 -16.16016,-36.027344 -36.02734,-36.027344 -19.86719,0 -36.02735,16.164063 -36.02735,36.027344 0,4.203125 -3.40625,7.613281 -7.60937,7.613281 -4.20703,0 -7.61328,-3.410156 -7.61328,-7.613281 0,-28.257813 22.99219,-51.25 51.25,-51.25 28.25781,0 51.25,22.992187 51.25,51.25 0,28.261721 -22.99219,51.250001 -51.25,51.250001 z m 0,0"
       id="path14"
       inkscape:connector-curvature="0" />
  </g>
  <path
     d="M 239.37891,49.5 H 63.011719 c -4.207031,0 -7.613281,-3.410156 -7.613281,-7.613281 0,-4.203125 3.40625,-7.609375 7.613281,-7.609375 H 239.37891 c 19.86328,0 36.02734,-16.164063 36.02734,-36.027344 0,-19.867188 -16.16406,-36.027344 -36.02734,-36.027344 -19.86719,0 -36.02735,16.160156 -36.02735,36.027344 0,4.203125 -3.40625,7.609375 -7.61328,7.609375 -4.20312,0 -7.60937,-3.40625 -7.60937,-7.609375 0,-28.261719 22.98828,-51.25 51.25,-51.25 28.25781,0 51.25,22.988281 51.25,51.25 0,28.257812 -22.99219,51.25 -51.25,51.25 z m 0,0"
     id="path18"
     inkscape:connector-curvature="0"
     style="fill:#d3ddea" />
</svg>
